{"title":"Sanctum.2011.3D.SBS.1080p.BluRay.MP4.AC3.DrKey","uid":7061950,"size":3920525290,"categoryP":"video","categoryS":"3d","magnet":"?xt=urn:btih:42ae79c9dfa34be90009e8a5850396f26d8f7fb2&amp;dn=Sanctum.2011.3D.SBS.1080p.BluRay.MP4.AC3.DrKey&amp;tr=udp%3A%2F%2Ftracker.openbittorrent.com%3A80&amp;tr=udp%3A%2F%2Fopen.demonii.com%3A1337&amp;tr=udp%3A%2F%2Ftracker.coppersurfer.tk%3A6969&amp;tr=udp%3A%2F%2Fexodus.desync.com%3A6969","seeders":1,"leechers":2,"uploader":"DrKey","files":1,"time":1330381126,"description":"This is a stereoscopic 3D rip of Sanctum 3D, for new 3D TVs or computers with Nvidia 3D Vision. Tested with Stereoscopic Player. \n\nThis was originally ripped by L3G3ND,I changed it from mkv to mp4 and the Audio from DTS to AC3 To work on my Lg Cinema 3D TV and it worked\n\n\nVideo\nID : 1\nFormat : AVC\nFormat/Info : Advanced Video Codec\nFormat profile : &lt;a class=&quot;__cf_email__&quot; href=&quot;/cdn-cgi/l/email-protection&quot; data-cfemail=&quot;df97b6b8b79f93ebf1ef&quot;&gt;[email&amp;#160;protected]&lt;/a&gt;&lt;script cf-hash='f9e31' type=&quot;text/javascript&quot;&gt;\n/* &lt;![CDATA[ */!function(){try{var t=&quot;currentScript&quot;in document?document.currentScript:function(){for(var t=document.getElementsByTagName(&quot;script&quot;),e=t.length;e--;)if(t[e].getAttribute(&quot;cf-hash&quot;))return t[e]}();if(t&amp;&amp;t.previousSibling){var e,r,n,i,c=t.previousSibling,a=c.getAttribute(&quot;data-cfemail&quot;);if(a){for(e=&quot;&quot;,r=parseInt(a.substr(0,2),16),n=2;a.length-n;n+=2)i=parseInt(a.substr(n,2),16)^r,e+=String.fromCharCode(i);e=document.createTextNode(e),c.parentNode.replaceChild(e,c)}}}catch(u){}}();/* ]]&gt; */&lt;/script&gt;\nFormat settings, CABAC : Yes\nFormat settings, ReFrames : 4 frames\nFormat settings, GOP : M=2, N=5\nCodec ID :MPEG4\nDuration : 1h 48mn\nBit rate : 9 443 Kbps\nNominal bit rate : 10 000 Kbps\nWidth : 1 920 pixels\nHeight : 1 080 pixels\nDisplay aspect ratio : 16:9\nFrame rate mode : Variable\nFrame rate : 23.976 fps\nColor space : YUV\nChroma subsampling : 4:2:0\nBit depth : 8 bits\nScan type : Progressive\nBits/(Pixel*Frame) : 0.190\nStream size : 7.18 GiB (84%)\nWriting library : x264 core 107 r1745 4785e8e\nLanguage : English\n\nAudio\nID : 2\nFormat : AC3\nFormat/Info : Digital Theater Systems\nDuration : 1h 48mn\nBit rate mode : Constant\nBit rate : 1 510 Kbps\nChannel(s) : 6 channels\nChannel positions : Front: L C R, Side: L R, LFE\nSampling rate : 48.0 KHz\nBit depth : 24 bits\nCompression mode : Lossy\nStream size : 1.15 GiB (14%)\nLanguage : English","torrent":{"xt":"urn:btih:42ae79c9dfa34be90009e8a5850396f26d8f7fb2","amp;dn":"Sanctum.2011.3D.SBS.1080p.BluRay.MP4.AC3.DrKey","amp;tr":["udp%3A%2F%2Ftracker.openbittorrent.com%3A80","udp%3A%2F%2Fopen.demonii.com%3A1337","udp%3A%2F%2Ftracker.coppersurfer.tk%3A6969","udp%3A%2F%2Fexodus.desync.com%3A6969"],"infoHash":"42ae79c9dfa34be90009e8a5850396f26d8f7fb2","infoHashBuffer":{"type":"Buffer","data":[66,174,121,201,223,163,75,233,0,9,232,165,133,3,150,242,109,143,127,178]},"announce":[],"urlList":[]}}